<svg width="49" height="54" viewBox="0 0 49 54" fill="none" xmlns="http://www.w3.org/2000/svg">
<path fill-rule="evenodd" clip-rule="evenodd" d="M28.2641 0.983476C26.0983 -0.266954 23.4299 -0.266953 21.2641 0.983477L4.02832 10.9346C1.86251 12.185 0.52832 14.4959 0.52832 16.9968V36.899C0.52832 39.3998 1.86251 41.7107 4.02832 42.9611L4.61488 43.2998V34.1961C4.61488 32.8025 5.1522 31.4424 6.0925 30.4517L21.2213 14.5002C23.1858 12.4349 26.3593 12.4349 28.3239 14.5002L43.4526 30.4517C44.3929 31.4424 44.9134 32.8025 44.9134 34.1961V43.2998L45.5 42.9611C47.6658 41.7107 49 39.3998 49 36.899V16.9968C49 14.4959 47.6658 12.185 45.5 10.9346L28.2641 0.983476ZM30.2045 51.792V44.0525C30.2045 42.5413 29.6 41.198 28.6093 40.2073C27.6186 39.2167 26.2754 38.6122 24.7642 38.6122C21.7754 38.6122 19.3407 41.0469 19.3407 44.0525V51.8017L21.2641 52.9123C23.4299 54.1627 26.0983 54.1627 28.2641 52.9123L30.2045 51.792Z" fill="url(#paint0_linear_1083_1293)"/>
<defs>
<linearGradient id="paint0_linear_1083_1293" x1="24.7641" y1="0.0456543" x2="24.7641" y2="53.8501" gradientUnits="userSpaceOnUse">
<stop stop-color="#157BFF"/>
<stop offset="1" stop-color="#0068EF"/>
</linearGradient>
</defs>
</svg>
